<svg data-v-0dd9719b="" version="1.0" xmlns="http://www.w3.org/2000/svg" xmlns:xlink="http://www.w3.org/1999/xlink"
    width="100%" height="100%" viewBox="0 0 340.000000 250.000000" preserveAspectRatio="xMidYMid meet"
    color-interpolation-filters="sRGB" style="margin: auto;">
    <rect data-v-0dd9719b="" x="0" y="0" width="100%" height="100%" fill="#333333" fill-opacity="0" class="background">
    </rect>
    <!---->
    <g data-v-0dd9719b="" fill="#f7eeee" class="basesvg" transform="translate(29.12480139732361,102.50359892845154)">
        <g fill-rule="" class="tp-name">
            <g transform="scale(1.08)">
                <g>
                    <g fill="#ff0050" data-gra-ignore="true" transform="translate(1.8, 1.8)">
                        <path
                            d="M11.2 0L0.86 0 0.86-3.65 3.02-3.96 12.68-30.37 18.92-30.37 28.52-3.96 30.69-3.65 30.69 0 20.34 0 20.34-3.65 22.45-4.03 21.11-8.2 10.43-8.2 9.1-4.03 11.2-3.65 11.2 0ZM15.4-23.03L11.87-12.68 19.67-12.68 16.13-23.09 15.83-24.01 15.71-24.01 15.4-23.03ZM44.5 0L32.52 0 32.52-3.65 35.47-4.28 35.47-28.25 32.21-28.87 32.21-32.54 41.56-32.54 41.56-4.28 44.5-3.65 44.5 0ZM56.43 9.12L56.43 9.12Q54.72 9.12 52.59 8.68 50.46 8.24 48.84 7.43L48.84 7.43 49.96 3.09Q51.42 3.71 53.06 4.08 54.7 4.44 56.12 4.44L56.12 4.44Q58.56 4.44 59.7 3.09 60.83 1.73 60.83-0.69L60.83-0.69 60.83-2.17Q59.83-0.9 58.48-0.23 57.12 0.44 55.37 0.44L55.37 0.44Q52.61 0.44 50.63-0.95 48.65-2.34 47.61-4.84 46.56-7.34 46.56-10.66L46.56-10.66 46.56-11.1Q46.56-14.67 47.61-17.34 48.65-20.01 50.59-21.5 52.53-22.99 55.24-22.99L55.24-22.99Q57.27-22.99 58.73-22.14 60.19-21.3 61.21-19.74L61.21-19.74 61.65-22.57 66.95-22.57 66.95-0.67Q66.95 2.32 65.68 4.51 64.42 6.7 62.06 7.91 59.71 9.12 56.43 9.12ZM57.08-4.3L57.08-4.3Q58.37-4.3 59.31-4.81 60.25-5.32 60.83-6.3L60.83-6.3 60.83-16.11Q60.25-17.13 59.3-17.69 58.35-18.25 57.1-18.25L57.1-18.25Q55.53-18.25 54.55-17.35 53.57-16.44 53.11-14.84 52.66-13.25 52.66-11.1L52.66-11.1 52.66-10.66Q52.66-7.7 53.68-6 54.7-4.3 57.08-4.3ZM69.59-18.9L66.17-18.17 63.52-22.57 69.59-22.57 69.59-18.9ZM81.99 0.44L81.99 0.44Q78.65 0.44 76.25-1.02 73.85-2.48 72.58-5.08 71.31-7.68 71.31-11.06L71.31-11.06 71.31-11.49Q71.31-14.85 72.58-17.45 73.85-20.05 76.24-21.52 78.63-22.99 81.95-22.99L81.95-22.99Q85.3-22.99 87.68-21.52 90.06-20.05 91.33-17.46 92.61-14.87 92.61-11.49L92.61-11.49 92.61-11.06Q92.61-7.68 91.33-5.08 90.06-2.48 87.68-1.02 85.3 0.44 81.99 0.44ZM81.99-4.23L81.99-4.23Q83.57-4.23 84.57-5.09 85.57-5.95 86.05-7.48 86.53-9.01 86.53-11.06L86.53-11.06 86.53-11.49Q86.53-13.5 86.05-15.03 85.57-16.56 84.56-17.43 83.55-18.3 81.95-18.3L81.95-18.3Q80.38-18.3 79.36-17.43 78.34-16.56 77.87-15.03 77.4-13.5 77.4-11.49L77.4-11.49 77.4-11.06Q77.4-9.01 77.87-7.47 78.34-5.92 79.36-5.08 80.38-4.23 81.99-4.23Z"
                            transform="translate(-0.8600000143051147, 32.540000915527344)"></path>
                    </g>
                    <g fill="#00faf0" data-gra-ignore="true" transform="translate(-1.8, -1.8)">
                        <path
                            d="M11.2 0L0.86 0 0.86-3.65 3.02-3.96 12.68-30.37 18.92-30.37 28.52-3.96 30.69-3.65 30.69 0 20.34 0 20.34-3.65 22.45-4.03 21.11-8.2 10.43-8.2 9.1-4.03 11.2-3.65 11.2 0ZM15.4-23.03L11.87-12.68 19.67-12.68 16.13-23.09 15.83-24.01 15.71-24.01 15.4-23.03ZM44.5 0L32.52 0 32.52-3.65 35.47-4.28 35.47-28.25 32.21-28.87 32.21-32.54 41.56-32.54 41.56-4.28 44.5-3.65 44.5 0ZM56.43 9.12L56.43 9.12Q54.72 9.12 52.59 8.68 50.46 8.24 48.84 7.43L48.84 7.43 49.96 3.09Q51.42 3.71 53.06 4.08 54.7 4.44 56.12 4.44L56.12 4.44Q58.56 4.44 59.7 3.09 60.83 1.73 60.83-0.69L60.83-0.69 60.83-2.17Q59.83-0.9 58.48-0.23 57.12 0.44 55.37 0.44L55.37 0.44Q52.61 0.44 50.63-0.95 48.65-2.34 47.61-4.84 46.56-7.34 46.56-10.66L46.56-10.66 46.56-11.1Q46.56-14.67 47.61-17.34 48.65-20.01 50.59-21.5 52.53-22.99 55.24-22.99L55.24-22.99Q57.27-22.99 58.73-22.14 60.19-21.3 61.21-19.74L61.21-19.74 61.65-22.57 66.95-22.57 66.95-0.67Q66.95 2.32 65.68 4.51 64.42 6.7 62.06 7.91 59.71 9.12 56.43 9.12ZM57.08-4.3L57.08-4.3Q58.37-4.3 59.31-4.81 60.25-5.32 60.83-6.3L60.83-6.3 60.83-16.11Q60.25-17.13 59.3-17.69 58.35-18.25 57.1-18.25L57.1-18.25Q55.53-18.25 54.55-17.35 53.57-16.44 53.11-14.84 52.66-13.25 52.66-11.1L52.66-11.1 52.66-10.66Q52.66-7.7 53.68-6 54.7-4.3 57.08-4.3ZM69.59-18.9L66.17-18.17 63.52-22.57 69.59-22.57 69.59-18.9ZM81.99 0.44L81.99 0.44Q78.65 0.44 76.25-1.02 73.85-2.48 72.58-5.08 71.31-7.68 71.31-11.06L71.31-11.06 71.31-11.49Q71.31-14.85 72.58-17.45 73.85-20.05 76.24-21.52 78.63-22.99 81.95-22.99L81.95-22.99Q85.3-22.99 87.68-21.52 90.06-20.05 91.33-17.46 92.61-14.87 92.61-11.49L92.61-11.49 92.61-11.06Q92.61-7.68 91.33-5.08 90.06-2.48 87.68-1.02 85.3 0.44 81.99 0.44ZM81.99-4.23L81.99-4.23Q83.57-4.23 84.57-5.09 85.57-5.95 86.05-7.48 86.53-9.01 86.53-11.06L86.53-11.06 86.53-11.49Q86.53-13.5 86.05-15.03 85.57-16.56 84.56-17.43 83.55-18.3 81.95-18.3L81.95-18.3Q80.38-18.3 79.36-17.43 78.34-16.56 77.87-15.03 77.4-13.5 77.4-11.49L77.4-11.49 77.4-11.06Q77.4-9.01 77.87-7.47 78.34-5.92 79.36-5.08 80.38-4.23 81.99-4.23Z"
                            transform="translate(-0.8600000143051147, 32.540000915527344)"></path>
                    </g>
                    <g>
                        <path
                            d="M11.2 0L0.86 0 0.86-3.65 3.02-3.96 12.68-30.37 18.92-30.37 28.52-3.96 30.69-3.65 30.69 0 20.34 0 20.34-3.65 22.45-4.03 21.11-8.2 10.43-8.2 9.1-4.03 11.2-3.65 11.2 0ZM15.4-23.03L11.87-12.68 19.67-12.68 16.13-23.09 15.83-24.01 15.71-24.01 15.4-23.03ZM44.5 0L32.52 0 32.52-3.65 35.47-4.28 35.47-28.25 32.21-28.87 32.21-32.54 41.56-32.54 41.56-4.28 44.5-3.65 44.5 0ZM56.43 9.12L56.43 9.12Q54.72 9.12 52.59 8.68 50.46 8.24 48.84 7.43L48.84 7.43 49.96 3.09Q51.42 3.71 53.06 4.08 54.7 4.44 56.12 4.44L56.12 4.44Q58.56 4.44 59.7 3.09 60.83 1.73 60.83-0.69L60.83-0.69 60.83-2.17Q59.83-0.9 58.48-0.23 57.12 0.44 55.37 0.44L55.37 0.44Q52.61 0.44 50.63-0.95 48.65-2.34 47.61-4.84 46.56-7.34 46.56-10.66L46.56-10.66 46.56-11.1Q46.56-14.67 47.61-17.34 48.65-20.01 50.59-21.5 52.53-22.99 55.24-22.99L55.24-22.99Q57.27-22.99 58.73-22.14 60.19-21.3 61.21-19.74L61.21-19.74 61.65-22.57 66.95-22.57 66.95-0.67Q66.95 2.32 65.68 4.51 64.42 6.7 62.06 7.91 59.71 9.12 56.43 9.12ZM57.08-4.3L57.08-4.3Q58.37-4.3 59.31-4.81 60.25-5.32 60.83-6.3L60.83-6.3 60.83-16.11Q60.25-17.13 59.3-17.69 58.35-18.25 57.1-18.25L57.1-18.25Q55.53-18.25 54.55-17.35 53.57-16.44 53.11-14.84 52.66-13.25 52.66-11.1L52.66-11.1 52.66-10.66Q52.66-7.7 53.68-6 54.7-4.3 57.08-4.3ZM69.59-18.9L66.17-18.17 63.52-22.57 69.59-22.57 69.59-18.9ZM81.99 0.44L81.99 0.44Q78.65 0.44 76.25-1.02 73.85-2.48 72.58-5.08 71.31-7.68 71.31-11.06L71.31-11.06 71.31-11.49Q71.31-14.85 72.58-17.45 73.85-20.05 76.24-21.52 78.63-22.99 81.95-22.99L81.95-22.99Q85.3-22.99 87.68-21.52 90.06-20.05 91.33-17.46 92.61-14.87 92.61-11.49L92.61-11.49 92.61-11.06Q92.61-7.68 91.33-5.08 90.06-2.48 87.68-1.02 85.3 0.44 81.99 0.44ZM81.99-4.23L81.99-4.23Q83.57-4.23 84.57-5.09 85.57-5.95 86.05-7.48 86.53-9.01 86.53-11.06L86.53-11.06 86.53-11.49Q86.53-13.5 86.05-15.03 85.57-16.56 84.56-17.43 83.55-18.3 81.95-18.3L81.95-18.3Q80.38-18.3 79.36-17.43 78.34-16.56 77.87-15.03 77.4-13.5 77.4-11.49L77.4-11.49 77.4-11.06Q77.4-9.01 77.87-7.47 78.34-5.92 79.36-5.08 80.38-4.23 81.99-4.23Z"
                            transform="translate(-0.8600000143051147, 32.540000915527344)"></path>
                    </g>
                </g>
                <g transform="translate(98.35000610351562,0)">
                    <g transform="scale(1)">
                        <g fill="#ff0050" data-gra-ignore="true" transform="translate(1.8, 1.8)">
                            <path
                                d="M13.75 0L1.17 0 1.17-3.65 4.4-4.28 4.4-26.08 1.17-26.7 1.17-30.37 15.56-30.37Q19.07-30.37 21.57-29.29 24.07-28.21 25.42-26.18 26.77-24.16 26.77-21.32L26.77-21.32Q26.77-18.65 25.43-16.54 24.1-14.44 21.72-13.23 19.34-12.02 16.23-12L16.23-12 10.49-12 10.49-4.28 13.75-3.65 13.75 0ZM28.1 0L20.72 0 15.6-13.12 21.09-14.48 25.51-4.26 28.1-3.65 28.1 0ZM10.49-25.68L10.49-16.69 15.46-16.69Q18.09-16.69 19.39-17.81 20.69-18.92 20.69-21.05L20.69-21.05Q20.69-23.16 19.4-24.42 18.11-25.68 15.56-25.68L15.56-25.68 10.49-25.68ZM41.99 0L30.35 0 30.35-3.65 33.3-4.28 33.3-28.25 30.04-28.87 30.04-32.54 39.37-32.54 39.37-19.69Q40.43-21.26 42.01-22.12 43.58-22.99 45.58-22.99L45.58-22.99Q48.98-22.99 50.98-20.73 52.97-18.46 52.97-13.73L52.97-13.73 52.97-4.28 55.89-3.65 55.89 0 44.25 0 44.25-3.65 46.88-4.28 46.88-13.77Q46.88-16.21 45.96-17.23 45.04-18.25 43.27-18.25L43.27-18.25Q42.04-18.25 41.02-17.74 40.01-17.23 39.37-16.25L39.37-16.25 39.37-4.28 41.99-3.65 41.99 0ZM62.71 9.12L62.71 9.12Q61.92 9.12 61.03 8.98 60.14 8.85 59.35 8.62L59.35 8.62 60.04 4.15Q60.44 4.23 60.92 4.28 61.4 4.32 61.75 4.32L61.75 4.32Q63.07 4.32 64.02 3.63 64.98 2.94 65.42 1.65L65.42 1.65 65.92 0.25 58.37-18.5 55.6-18.9 55.6-22.57 67.57-22.57 67.57-18.9 64.82-18.48 68.36-8.53 68.8-7.3 68.93-7.3 73.12-18.53 70.43-18.9 70.43-22.57 81.59-22.57 81.59-18.9 79.05-18.55 70.43 3.36Q69.8 4.92 68.83 6.23 67.86 7.53 66.37 8.32 64.88 9.12 62.71 9.12ZM92.13 0.44L92.13 0.44Q88.98 0.44 87.28-1.29 85.57-3.02 85.57-6.78L85.57-6.78 85.57-18.3 82.47-18.3 82.47-22.57 85.57-22.57 85.57-28.1 91.65-28.1 91.65-22.57 95.8-22.57 95.8-18.3 91.65-18.3 91.65-6.8Q91.65-5.49 92.2-4.92 92.75-4.36 93.71-4.36L93.71-4.36Q94.21-4.36 94.8-4.43 95.38-4.51 95.8-4.59L95.8-4.59 96.32-0.19Q95.38 0.08 94.28 0.26 93.19 0.44 92.13 0.44ZM109.9 0L98.26 0 98.26-3.65 101.2-4.28 101.2-28.25 97.95-28.87 97.95-32.54 107.27-32.54 107.27-19.69Q108.34-21.26 109.91-22.12 111.49-22.99 113.49-22.99L113.49-22.99Q116.89-22.99 118.88-20.73 120.87-18.46 120.87-13.73L120.87-13.73 120.87-4.28 123.79-3.65 123.79 0 112.15 0 112.15-3.65 114.78-4.28 114.78-13.77Q114.78-16.21 113.86-17.23 112.95-18.25 111.17-18.25L111.17-18.25Q109.94-18.25 108.93-17.74 107.92-17.23 107.27-16.25L107.27-16.25 107.27-4.28 109.9-3.65 109.9 0ZM137.17 0L125.53 0 125.53-3.65 128.47-4.28 128.47-18.27 125.21-18.9 125.21-22.57 134.12-22.57 134.37-19.59Q135.46-21.22 137.09-22.1 138.73-22.99 140.88-22.99L140.88-22.99Q143.05-22.99 144.6-22.03 146.16-21.07 146.93-19.13L146.93-19.13Q147.97-20.95 149.64-21.97 151.31-22.99 153.56-22.99L153.56-22.99Q156.9-22.99 158.83-20.72 160.76-18.44 160.76-13.79L160.76-13.79 160.76-4.28 163.7-3.65 163.7 0 152.04 0 152.04-3.65 154.67-4.28 154.67-13.81Q154.67-16.31 153.85-17.28 153.02-18.25 151.46-18.25L151.46-18.25Q150.04-18.25 149.06-17.45 148.08-16.65 147.64-15.33L147.64-15.33 147.64-4.28 150.1-3.65 150.1 0 139.11 0 139.11-3.65 141.57-4.28 141.57-13.81Q141.57-16.25 140.74-17.25 139.92-18.25 138.31-18.25L138.31-18.25Q137.02-18.25 136.08-17.73 135.14-17.21 134.54-16.23L134.54-16.23 134.54-4.28 137.17-3.65 137.17 0Z"
                                transform="translate(-1.1700000762939453, 32.540000915527344)"></path>
                        </g>
                        <g fill="#00faf0" data-gra-ignore="true" transform="translate(-1.8, -1.8)">
                            <path
                                d="M13.75 0L1.17 0 1.17-3.65 4.4-4.28 4.4-26.08 1.17-26.7 1.17-30.37 15.56-30.37Q19.07-30.37 21.57-29.29 24.07-28.21 25.42-26.18 26.77-24.16 26.77-21.32L26.77-21.32Q26.77-18.65 25.43-16.54 24.1-14.44 21.72-13.23 19.34-12.02 16.23-12L16.23-12 10.49-12 10.49-4.28 13.75-3.65 13.75 0ZM28.1 0L20.72 0 15.6-13.12 21.09-14.48 25.51-4.26 28.1-3.65 28.1 0ZM10.49-25.68L10.49-16.69 15.46-16.69Q18.09-16.69 19.39-17.81 20.69-18.92 20.69-21.05L20.69-21.05Q20.69-23.16 19.4-24.42 18.11-25.68 15.56-25.68L15.56-25.68 10.49-25.68ZM41.99 0L30.35 0 30.35-3.65 33.3-4.28 33.3-28.25 30.04-28.87 30.04-32.54 39.37-32.54 39.37-19.69Q40.43-21.26 42.01-22.12 43.58-22.99 45.58-22.99L45.58-22.99Q48.98-22.99 50.98-20.73 52.97-18.46 52.97-13.73L52.97-13.73 52.97-4.28 55.89-3.65 55.89 0 44.25 0 44.25-3.65 46.88-4.28 46.88-13.77Q46.88-16.21 45.96-17.23 45.04-18.25 43.27-18.25L43.27-18.25Q42.04-18.25 41.02-17.74 40.01-17.23 39.37-16.25L39.37-16.25 39.37-4.28 41.99-3.65 41.99 0ZM62.71 9.12L62.71 9.12Q61.92 9.12 61.03 8.98 60.14 8.85 59.35 8.62L59.35 8.62 60.04 4.15Q60.44 4.23 60.92 4.28 61.4 4.32 61.75 4.32L61.75 4.32Q63.07 4.32 64.02 3.63 64.98 2.94 65.42 1.65L65.42 1.65 65.92 0.25 58.37-18.5 55.6-18.9 55.6-22.57 67.57-22.57 67.57-18.9 64.82-18.48 68.36-8.53 68.8-7.3 68.93-7.3 73.12-18.53 70.43-18.9 70.43-22.57 81.59-22.57 81.59-18.9 79.05-18.55 70.43 3.36Q69.8 4.92 68.83 6.23 67.86 7.53 66.37 8.32 64.88 9.12 62.71 9.12ZM92.13 0.44L92.13 0.44Q88.98 0.44 87.28-1.29 85.57-3.02 85.57-6.78L85.57-6.78 85.57-18.3 82.47-18.3 82.47-22.57 85.57-22.57 85.57-28.1 91.65-28.1 91.65-22.57 95.8-22.57 95.8-18.3 91.65-18.3 91.65-6.8Q91.65-5.49 92.2-4.92 92.75-4.36 93.71-4.36L93.71-4.36Q94.21-4.36 94.8-4.43 95.38-4.51 95.8-4.59L95.8-4.59 96.32-0.19Q95.38 0.08 94.28 0.26 93.19 0.44 92.13 0.44ZM109.9 0L98.26 0 98.26-3.65 101.2-4.28 101.2-28.25 97.95-28.87 97.95-32.54 107.27-32.54 107.27-19.69Q108.34-21.26 109.91-22.12 111.49-22.99 113.49-22.99L113.49-22.99Q116.89-22.99 118.88-20.73 120.87-18.46 120.87-13.73L120.87-13.73 120.87-4.28 123.79-3.65 123.79 0 112.15 0 112.15-3.65 114.78-4.28 114.78-13.77Q114.78-16.21 113.86-17.23 112.95-18.25 111.17-18.25L111.17-18.25Q109.94-18.25 108.93-17.74 107.92-17.23 107.27-16.25L107.27-16.25 107.27-4.28 109.9-3.65 109.9 0ZM137.17 0L125.53 0 125.53-3.65 128.47-4.28 128.47-18.27 125.21-18.9 125.21-22.57 134.12-22.57 134.37-19.59Q135.46-21.22 137.09-22.1 138.73-22.99 140.88-22.99L140.88-22.99Q143.05-22.99 144.6-22.03 146.16-21.07 146.93-19.13L146.93-19.13Q147.97-20.95 149.64-21.97 151.31-22.99 153.56-22.99L153.56-22.99Q156.9-22.99 158.83-20.72 160.76-18.44 160.76-13.79L160.76-13.79 160.76-4.28 163.7-3.65 163.7 0 152.04 0 152.04-3.65 154.67-4.28 154.67-13.81Q154.67-16.31 153.85-17.28 153.02-18.25 151.46-18.25L151.46-18.25Q150.04-18.25 149.06-17.45 148.08-16.65 147.64-15.33L147.64-15.33 147.64-4.28 150.1-3.65 150.1 0 139.11 0 139.11-3.65 141.57-4.28 141.57-13.81Q141.57-16.25 140.74-17.25 139.92-18.25 138.31-18.25L138.31-18.25Q137.02-18.25 136.08-17.73 135.14-17.21 134.54-16.23L134.54-16.23 134.54-4.28 137.17-3.65 137.17 0Z"
                                transform="translate(-1.1700000762939453, 32.540000915527344)"></path>
                        </g>
                        <g fill="#f7eeee">
                            <path
                                d="M13.75 0L1.17 0 1.17-3.65 4.4-4.28 4.4-26.08 1.17-26.7 1.17-30.37 15.56-30.37Q19.07-30.37 21.57-29.29 24.07-28.21 25.42-26.18 26.77-24.16 26.77-21.32L26.77-21.32Q26.77-18.65 25.43-16.54 24.1-14.44 21.72-13.23 19.34-12.02 16.23-12L16.23-12 10.49-12 10.49-4.28 13.75-3.65 13.75 0ZM28.1 0L20.72 0 15.6-13.12 21.09-14.48 25.51-4.26 28.1-3.65 28.1 0ZM10.49-25.68L10.49-16.69 15.46-16.69Q18.09-16.69 19.39-17.81 20.69-18.92 20.69-21.05L20.69-21.05Q20.69-23.16 19.4-24.42 18.11-25.68 15.56-25.68L15.56-25.68 10.49-25.68ZM41.99 0L30.35 0 30.35-3.65 33.3-4.28 33.3-28.25 30.04-28.87 30.04-32.54 39.37-32.54 39.37-19.69Q40.43-21.26 42.01-22.12 43.58-22.99 45.58-22.99L45.58-22.99Q48.98-22.99 50.98-20.73 52.97-18.46 52.97-13.73L52.97-13.73 52.97-4.28 55.89-3.65 55.89 0 44.25 0 44.25-3.65 46.88-4.28 46.88-13.77Q46.88-16.21 45.96-17.23 45.04-18.25 43.27-18.25L43.27-18.25Q42.04-18.25 41.02-17.74 40.01-17.23 39.37-16.25L39.37-16.25 39.37-4.28 41.99-3.65 41.99 0ZM62.71 9.12L62.71 9.12Q61.92 9.12 61.03 8.98 60.14 8.85 59.35 8.62L59.35 8.62 60.04 4.15Q60.44 4.23 60.92 4.28 61.4 4.32 61.75 4.32L61.75 4.32Q63.07 4.32 64.02 3.63 64.98 2.94 65.42 1.65L65.42 1.65 65.92 0.25 58.37-18.5 55.6-18.9 55.6-22.57 67.57-22.57 67.57-18.9 64.82-18.48 68.36-8.53 68.8-7.3 68.93-7.3 73.12-18.53 70.43-18.9 70.43-22.57 81.59-22.57 81.59-18.9 79.05-18.55 70.43 3.36Q69.8 4.92 68.83 6.23 67.86 7.53 66.37 8.32 64.88 9.12 62.71 9.12ZM92.13 0.44L92.13 0.44Q88.98 0.44 87.28-1.29 85.57-3.02 85.57-6.78L85.57-6.78 85.57-18.3 82.47-18.3 82.47-22.57 85.57-22.57 85.57-28.1 91.65-28.1 91.65-22.57 95.8-22.57 95.8-18.3 91.65-18.3 91.65-6.8Q91.65-5.49 92.2-4.92 92.75-4.36 93.71-4.36L93.71-4.36Q94.21-4.36 94.8-4.43 95.38-4.51 95.8-4.59L95.8-4.59 96.32-0.19Q95.38 0.08 94.28 0.26 93.19 0.44 92.13 0.44ZM109.9 0L98.26 0 98.26-3.65 101.2-4.28 101.2-28.25 97.95-28.87 97.95-32.54 107.27-32.54 107.27-19.69Q108.34-21.26 109.91-22.12 111.49-22.99 113.49-22.99L113.49-22.99Q116.89-22.99 118.88-20.73 120.87-18.46 120.87-13.73L120.87-13.73 120.87-4.28 123.79-3.65 123.79 0 112.15 0 112.15-3.65 114.78-4.28 114.78-13.77Q114.78-16.21 113.86-17.23 112.95-18.25 111.17-18.25L111.17-18.25Q109.94-18.25 108.93-17.74 107.92-17.23 107.27-16.25L107.27-16.25 107.27-4.28 109.9-3.65 109.9 0ZM137.17 0L125.53 0 125.53-3.65 128.47-4.28 128.47-18.27 125.21-18.9 125.21-22.57 134.12-22.57 134.37-19.59Q135.46-21.22 137.09-22.1 138.73-22.99 140.88-22.99L140.88-22.99Q143.05-22.99 144.6-22.03 146.16-21.07 146.93-19.13L146.93-19.13Q147.97-20.95 149.64-21.97 151.31-22.99 153.56-22.99L153.56-22.99Q156.9-22.99 158.83-20.72 160.76-18.44 160.76-13.79L160.76-13.79 160.76-4.28 163.7-3.65 163.7 0 152.04 0 152.04-3.65 154.67-4.28 154.67-13.81Q154.67-16.31 153.85-17.28 153.02-18.25 151.46-18.25L151.46-18.25Q150.04-18.25 149.06-17.45 148.08-16.65 147.64-15.33L147.64-15.33 147.64-4.28 150.1-3.65 150.1 0 139.11 0 139.11-3.65 141.57-4.28 141.57-13.81Q141.57-16.25 140.74-17.25 139.92-18.25 138.31-18.25L138.31-18.25Q137.02-18.25 136.08-17.73 135.14-17.21 134.54-16.23L134.54-16.23 134.54-4.28 137.17-3.65 137.17 0Z"
                                transform="translate(-1.1700000762939453, 32.540000915527344)"></path>
                        </g>
                    </g>
                </g>
            </g>
        </g>
        <!---->
    </g>
    <defs v-gra="od"></defs>
</svg>